<mxfile host="drawio-plugin" modified="2025-07-06T09:34:47.760Z" agent="Mozilla/5.0 (Windows NT 10.0; Win64; x64) AppleWebKit/537.36 (KHTML, like Gecko) Chrome/122.0.0.0 Safari/537.36" version="22.1.22" etag="X5aYe9c0tCFAUOy3o8cl" type="embed">
  <diagram id="DYLsONG8CLz389eby04Z" name="Page-1">
    <mxGraphModel dx="2596" dy="1375" grid="1" gridSize="10" guides="1" tooltips="1" connect="1" arrows="1" fold="1" page="0" pageScale="1" pageWidth="850" pageHeight="1100" background="none" math="0" shadow="0">
      <root>
        <mxCell id="0" />
        <mxCell id="1" parent="0" />
        <mxCell id="node12" value="&lt;p style=&quot;margin:0px;margin-top:4px;text-align:center;&quot;&gt;&lt;b&gt;BaseEntity&lt;/b&gt;&lt;/p&gt;&lt;hr size=&quot;1&quot;/&gt;&lt;p style=&quot;margin:0 0 0 4px;line-height:1.6;&quot;&gt; id: long&lt;br/&gt; updatedAt: LocalDateTime&lt;br/&gt; createdAt: LocalDateTime&lt;/p&gt;" style="verticalAlign=top;align=left;overflow=fill;fontSize=14;fontFamily=Helvetica;html=1;rounded=0;shadow=0;comic=0;labelBackgroundColor=none;strokeWidth=1;" parent="1" vertex="1">
          <mxGeometry x="-180" y="-120" width="208" height="120" as="geometry" />
        </mxCell>
        <mxCell id="node11" value="&lt;p style=&quot;margin:0px;margin-top:4px;text-align:center;&quot;&gt;&lt;b&gt;BlockedKeyword&lt;/b&gt;&lt;/p&gt;&lt;hr size=&quot;1&quot;/&gt;&lt;p style=&quot;margin:0 0 0 4px;line-height:1.6;&quot;&gt; blockedKeyword: String&lt;/p&gt;" style="verticalAlign=top;align=left;overflow=fill;fontSize=14;fontFamily=Helvetica;html=1;rounded=0;shadow=0;comic=0;labelBackgroundColor=none;strokeWidth=1;" parent="1" vertex="1">
          <mxGeometry x="567" y="432" width="193" height="68" as="geometry" />
        </mxCell>
        <mxCell id="node7" value="&lt;p style=&quot;margin:0px;margin-top:4px;text-align:center;&quot;&gt;&lt;b&gt;ExternalServerDetail&lt;/b&gt;&lt;/p&gt;&lt;hr size=&quot;1&quot;/&gt;&lt;p style=&quot;margin:0 0 0 4px;line-height:1.6;&quot;&gt; serverName: String&lt;br/&gt; lastAccessedDate: LocalDate&lt;br/&gt; isActive: boolean&lt;br/&gt; requestUri: String&lt;br/&gt; apiKey: String&lt;br/&gt; lastFailedTime: LocalDateTime&lt;/p&gt;" style="verticalAlign=top;align=left;overflow=fill;fontSize=14;fontFamily=Helvetica;html=1;rounded=0;shadow=0;comic=0;labelBackgroundColor=none;strokeWidth=1;" parent="1" vertex="1">
          <mxGeometry x="1167" y="372" width="233" height="183" as="geometry" />
        </mxCell>
        <mxCell id="node8" value="&lt;p style=&quot;margin:0px;margin-top:4px;text-align:center;&quot;&gt;&lt;b&gt;Keyword&lt;/b&gt;&lt;/p&gt;&lt;hr size=&quot;1&quot;/&gt;&lt;p style=&quot;margin:0 0 0 4px;line-height:1.6;&quot;&gt; keyword: String&lt;br/&gt; users: List&amp;lt;User&amp;gt;&lt;br/&gt; parentCategory: NewsCategory&lt;br/&gt; isActive: boolean&lt;/p&gt;" style="verticalAlign=top;align=left;overflow=fill;fontSize=14;fontFamily=Helvetica;html=1;rounded=0;shadow=0;comic=0;labelBackgroundColor=none;strokeWidth=1;" parent="1" vertex="1">
          <mxGeometry x="403" y="1656" width="241" height="146" as="geometry" />
        </mxCell>
        <mxCell id="node9" value="&lt;p style=&quot;margin:0px;margin-top:4px;text-align:center;&quot;&gt;&lt;b&gt;News&lt;/b&gt;&lt;/p&gt;&lt;hr size=&quot;1&quot;/&gt;&lt;p style=&quot;margin:0 0 0 4px;line-height:1.6;&quot;&gt; readHistory: List&amp;lt;NewsReadHistory&amp;gt;&lt;br/&gt; description: String&lt;br/&gt; source: String&lt;br/&gt; userInteractions: List&amp;lt;NewsLikes&amp;gt;&lt;br/&gt; url: String&lt;br/&gt; publishedAt: LocalDate&lt;br/&gt; categories: List&amp;lt;NewsCategory&amp;gt;&lt;br/&gt; reportedNews: List&amp;lt;ReportedNews&amp;gt;&lt;br/&gt; savedNews: List&amp;lt;SavedArticle&amp;gt;&lt;br/&gt; isHidden: Boolean&lt;br/&gt; headline: String&lt;/p&gt;" style="verticalAlign=top;align=left;overflow=fill;fontSize=14;fontFamily=Helvetica;html=1;rounded=0;shadow=0;comic=0;labelBackgroundColor=none;strokeWidth=1;" parent="1" vertex="1">
          <mxGeometry x="125" y="852" width="276" height="303" as="geometry" />
        </mxCell>
        <mxCell id="node13" value="&lt;p style=&quot;margin:0px;margin-top:4px;text-align:center;&quot;&gt;&lt;b&gt;NewsCategory&lt;/b&gt;&lt;/p&gt;&lt;hr size=&quot;1&quot;/&gt;&lt;p style=&quot;margin:0 0 0 4px;line-height:1.6;&quot;&gt; isHidden: boolean&lt;br/&gt; news: List&amp;lt;News&amp;gt;&lt;br/&gt; notificationConfigurations: List&amp;lt;NotificationConfiguration&amp;gt;&lt;br/&gt; id: long&lt;br/&gt; categoryName: String&lt;br/&gt; keywords: List&amp;lt;Keyword&amp;gt;&lt;/p&gt;" style="verticalAlign=top;align=left;overflow=fill;fontSize=14;fontFamily=Helvetica;html=1;rounded=0;shadow=0;comic=0;labelBackgroundColor=none;strokeWidth=1;" parent="1" vertex="1">
          <mxGeometry x="176" y="1332" width="414" height="183" as="geometry" />
        </mxCell>
        <mxCell id="node3" value="&lt;p style=&quot;margin:0px;margin-top:4px;text-align:center;&quot;&gt;&lt;b&gt;NewsLikes&lt;/b&gt;&lt;/p&gt;&lt;hr size=&quot;1&quot;/&gt;&lt;p style=&quot;margin:0 0 0 4px;line-height:1.6;&quot;&gt; news: News&lt;br/&gt; interactionUser: User&lt;br/&gt; interactionType: NewsInteractionType&lt;/p&gt;" style="verticalAlign=top;align=left;overflow=fill;fontSize=14;fontFamily=Helvetica;html=1;rounded=0;shadow=0;comic=0;labelBackgroundColor=none;strokeWidth=1;" parent="1" vertex="1">
          <mxGeometry x="3" y="228" width="281" height="120" as="geometry" />
        </mxCell>
        <mxCell id="node1" value="&lt;p style=&quot;margin:0px;margin-top:4px;text-align:center;&quot;&gt;&lt;b&gt;NewsReadHistory&lt;/b&gt;&lt;/p&gt;&lt;hr size=&quot;1&quot;/&gt;&lt;p style=&quot;margin:0 0 0 4px;line-height:1.6;&quot;&gt; news: News&lt;br/&gt; readBy: User&lt;/p&gt;" style="verticalAlign=top;align=left;overflow=fill;fontSize=14;fontFamily=Helvetica;html=1;rounded=0;shadow=0;comic=0;labelBackgroundColor=none;strokeWidth=1;" parent="1" vertex="1">
          <mxGeometry x="328" y="240" width="191" height="94" as="geometry" />
        </mxCell>
        <mxCell id="node0" value="&lt;p style=&quot;margin:0px;margin-top:4px;text-align:center;&quot;&gt;&lt;b&gt;Notification&lt;/b&gt;&lt;/p&gt;&lt;hr size=&quot;1&quot;/&gt;&lt;p style=&quot;margin:0 0 0 4px;line-height:1.6;&quot;&gt; notificationType: NotificationType&lt;br/&gt; content: String&lt;br/&gt; newsId: Long&lt;br/&gt; hasRead: boolean&lt;br/&gt; receiver: User&lt;/p&gt;" style="verticalAlign=top;align=left;overflow=fill;fontSize=14;fontFamily=Helvetica;html=1;rounded=0;shadow=0;comic=0;labelBackgroundColor=none;strokeWidth=1;" parent="1" vertex="1">
          <mxGeometry x="955" y="2344" width="256" height="159" as="geometry" />
        </mxCell>
        <mxCell id="node5" value="&lt;p style=&quot;margin:0px;margin-top:4px;text-align:center;&quot;&gt;&lt;b&gt;NotificationConfiguration&lt;/b&gt;&lt;/p&gt;&lt;hr size=&quot;1&quot;/&gt;&lt;p style=&quot;margin:0 0 0 4px;line-height:1.6;&quot;&gt; newsCategory: NewsCategory&lt;br/&gt; user: User&lt;br/&gt; isEnabled: boolean&lt;/p&gt;" style="verticalAlign=top;align=left;overflow=fill;fontSize=14;fontFamily=Helvetica;html=1;rounded=0;shadow=0;comic=0;labelBackgroundColor=none;strokeWidth=1;" parent="1" vertex="1">
          <mxGeometry x="441" y="948" width="244" height="120" as="geometry" />
        </mxCell>
        <mxCell id="node10" value="&lt;p style=&quot;margin:0px;margin-top:4px;text-align:center;&quot;&gt;&lt;b&gt;Permission&lt;/b&gt;&lt;/p&gt;&lt;hr size=&quot;1&quot;/&gt;&lt;p style=&quot;margin:0 0 0 4px;line-height:1.6;&quot;&gt; permissionName: String&lt;br/&gt; roles: List&amp;lt;UserRole&amp;gt;&lt;/p&gt;" style="verticalAlign=top;align=left;overflow=fill;fontSize=14;fontFamily=Helvetica;html=1;rounded=0;shadow=0;comic=0;labelBackgroundColor=none;strokeWidth=1;" parent="1" vertex="1">
          <mxGeometry x="847" y="420" width="193" height="94" as="geometry" />
        </mxCell>
        <mxCell id="node14" value="&lt;p style=&quot;margin:0px;margin-top:4px;text-align:center;&quot;&gt;&lt;b&gt;ReportedNews&lt;/b&gt;&lt;/p&gt;&lt;hr size=&quot;1&quot;/&gt;&lt;p style=&quot;margin:0 0 0 4px;line-height:1.6;&quot;&gt; reportedNews: News&lt;br/&gt; reportedBy: User&lt;br/&gt; reportReason: String&lt;/p&gt;" style="verticalAlign=top;align=left;overflow=fill;fontSize=14;fontFamily=Helvetica;html=1;rounded=0;shadow=0;comic=0;labelBackgroundColor=none;strokeWidth=1;" parent="1" vertex="1">
          <mxGeometry x="-210" y="390" width="175" height="120" as="geometry" />
        </mxCell>
        <mxCell id="node6" value="&lt;p style=&quot;margin:0px;margin-top:4px;text-align:center;&quot;&gt;&lt;b&gt;SavedArticle&lt;/b&gt;&lt;/p&gt;&lt;hr size=&quot;1&quot;/&gt;&lt;p style=&quot;margin:0 0 0 4px;line-height:1.6;&quot;&gt; savedBy: User&lt;br/&gt; newsArticle: News&lt;/p&gt;" style="verticalAlign=top;align=left;overflow=fill;fontSize=14;fontFamily=Helvetica;html=1;rounded=0;shadow=0;comic=0;labelBackgroundColor=none;strokeWidth=1;" parent="1" vertex="1">
          <mxGeometry x="224" y="420" width="159" height="94" as="geometry" />
        </mxCell>
        <mxCell id="node2" value="&lt;p style=&quot;margin:0px;margin-top:4px;text-align:center;&quot;&gt;&lt;b&gt;User&lt;/b&gt;&lt;/p&gt;&lt;hr size=&quot;1&quot;/&gt;&lt;p style=&quot;margin:0 0 0 4px;line-height:1.6;&quot;&gt; password: String&lt;br/&gt; userInteractions: List&amp;lt;NewsLikes&amp;gt;&lt;br/&gt; email: String&lt;br/&gt; notifications: List&amp;lt;Notification&amp;gt;&lt;br/&gt; authorities: Collection&amp;lt;GrantedAuthority&amp;gt;&lt;br/&gt; reportedNews: List&amp;lt;ReportedNews&amp;gt;&lt;br/&gt; savedArticles: List&amp;lt;SavedArticle&amp;gt;&lt;br/&gt; notificationConfigurations: List&amp;lt;NotificationConfiguration&amp;gt;&lt;br/&gt; username: String&lt;br/&gt; roles: Set&amp;lt;UserRole&amp;gt;&lt;br/&gt; newsRead: List&amp;lt;NewsReadHistory&amp;gt;&lt;br/&gt; keywords: Set&amp;lt;Keyword&amp;gt;&lt;/p&gt;" style="verticalAlign=top;align=left;overflow=fill;fontSize=14;fontFamily=Helvetica;html=1;rounded=0;shadow=0;comic=0;labelBackgroundColor=none;strokeWidth=1;" parent="1" vertex="1">
          <mxGeometry x="576" y="1920" width="414" height="327" as="geometry" />
        </mxCell>
        <mxCell id="node4" value="&lt;p style=&quot;margin:0px;margin-top:4px;text-align:center;&quot;&gt;&lt;b&gt;UserRole&lt;/b&gt;&lt;/p&gt;&lt;hr size=&quot;1&quot;/&gt;&lt;p style=&quot;margin:0 0 0 4px;line-height:1.6;&quot;&gt; permissions: List&amp;lt;Permission&amp;gt;&lt;br/&gt; roleName: String&lt;/p&gt;" style="verticalAlign=top;align=left;overflow=fill;fontSize=14;fontFamily=Helvetica;html=1;rounded=0;shadow=0;comic=0;labelBackgroundColor=none;strokeWidth=1;" parent="1" vertex="1">
          <mxGeometry x="844" y="960" width="238" height="94" as="geometry" />
        </mxCell>
        <mxCell id="edge10" value="" style="html=1;rounded=1;edgeStyle=orthogonalEdgeStyle;dashed=0;startArrow=none;endArrow=block;endSize=12;strokeColor=#000082;exitX=0.500;exitY=0.000;exitDx=0;exitDy=0;entryX=0.500;entryY=1.000;entryDx=0;entryDy=0;" parent="1" source="node11" target="node12" edge="1">
          <mxGeometry width="50" height="50" relative="1" as="geometry">
            <Array as="points">
              <mxPoint x="663" y="203" />
              <mxPoint x="-17" y="203" />
            </Array>
          </mxGeometry>
        </mxCell>
        <mxCell id="edge8" value="" style="html=1;rounded=1;edgeStyle=orthogonalEdgeStyle;dashed=0;startArrow=none;endArrow=block;endSize=12;strokeColor=#000082;exitX=0.500;exitY=0.000;exitDx=0;exitDy=0;entryX=0.500;entryY=1.000;entryDx=0;entryDy=0;" parent="1" source="node7" target="node12" edge="1">
          <mxGeometry width="50" height="50" relative="1" as="geometry">
            <Array as="points">
              <mxPoint x="1283" y="203" />
              <mxPoint x="-17" y="203" />
            </Array>
          </mxGeometry>
        </mxCell>
        <mxCell id="edge0" value="" style="html=1;rounded=1;edgeStyle=orthogonalEdgeStyle;dashed=0;startArrow=none;endArrow=block;endSize=12;strokeColor=#000082;exitX=0.750;exitY=0.000;exitDx=0;exitDy=0;entryX=0.500;entryY=1.000;entryDx=0;entryDy=0;" parent="1" source="node8" target="node12" edge="1">
          <mxGeometry width="50" height="50" relative="1" as="geometry">
            <Array as="points">
              <mxPoint x="583" y="1563" />
              <mxPoint x="703" y="1563" />
              <mxPoint x="703" y="903" />
              <mxPoint x="823" y="903" />
              <mxPoint x="823" y="203" />
              <mxPoint x="-17" y="203" />
            </Array>
          </mxGeometry>
        </mxCell>
        <mxCell id="edge36" value="" style="html=1;rounded=1;edgeStyle=orthogonalEdgeStyle;dashed=0;startArrow=diamondThinstartSize=12;endArrow=openThin;endSize=12;strokeColor=#595959;exitX=0.250;exitY=0.000;exitDx=0;exitDy=0;entryX=0.500;entryY=0.000;entryDx=0;entryDy=0;" parent="1" source="node8" target="node13" edge="1">
          <mxGeometry width="50" height="50" relative="1" as="geometry">
            <Array as="points">
              <mxPoint x="463" y="1543" />
              <mxPoint x="623" y="1543" />
              <mxPoint x="623" y="1243" />
              <mxPoint x="383" y="1243" />
            </Array>
          </mxGeometry>
        </mxCell>
        <mxCell id="label216" value="1" style="edgeLabel;resizable=0;html=1;align=left;verticalAlign=top;strokeColor=default;" parent="edge36" vertex="1" connectable="0">
          <mxGeometry x="591" y="1523" as="geometry" />
        </mxCell>
        <mxCell id="label220" value="1" style="edgeLabel;resizable=0;html=1;align=left;verticalAlign=top;strokeColor=default;" parent="edge36" vertex="1" connectable="0">
          <mxGeometry x="484" y="1523" as="geometry" />
        </mxCell>
        <mxCell id="label221" value="parentCategory" style="edgeLabel;resizable=0;html=1;align=left;verticalAlign=top;strokeColor=default;" parent="edge36" vertex="1" connectable="0">
          <mxGeometry x="463" y="1561" as="geometry" />
        </mxCell>
        <mxCell id="edge20" value="" style="html=1;rounded=1;edgeStyle=orthogonalEdgeStyle;dashed=0;startArrow=diamondThinstartSize=12;endArrow=openThin;endSize=12;strokeColor=#595959;exitX=0.250;exitY=0.000;exitDx=0;exitDy=0;entryX=0.250;entryY=0.000;entryDx=0;entryDy=0;" parent="1" source="node8" target="node2" edge="1">
          <mxGeometry width="50" height="50" relative="1" as="geometry">
            <Array as="points">
              <mxPoint x="463" y="1623" />
              <mxPoint x="143" y="1623" />
              <mxPoint x="143" y="1823" />
              <mxPoint x="-17" y="1823" />
              <mxPoint x="-17" y="1843" />
              <mxPoint x="680" y="1843" />
            </Array>
          </mxGeometry>
        </mxCell>
        <mxCell id="label120" value="1" style="edgeLabel;resizable=0;html=1;align=left;verticalAlign=top;strokeColor=default;" parent="edge20" vertex="1" connectable="0">
          <mxGeometry x="377" y="1603" as="geometry" />
        </mxCell>
        <mxCell id="label124" value="*" style="edgeLabel;resizable=0;html=1;align=left;verticalAlign=top;strokeColor=default;" parent="edge20" vertex="1" connectable="0">
          <mxGeometry x="298" y="1603" as="geometry" />
        </mxCell>
        <mxCell id="label125" value="users" style="edgeLabel;resizable=0;html=1;align=left;verticalAlign=top;strokeColor=default;" parent="edge20" vertex="1" connectable="0">
          <mxGeometry x="143" y="1763" as="geometry" />
        </mxCell>
        <mxCell id="edge6" value="" style="html=1;rounded=1;edgeStyle=orthogonalEdgeStyle;dashed=0;startArrow=none;endArrow=block;endSize=12;strokeColor=#000082;exitX=0.750;exitY=0.000;exitDx=0;exitDy=0;entryX=0.500;entryY=1.000;entryDx=0;entryDy=0;" parent="1" source="node9" target="node12" edge="1">
          <mxGeometry width="50" height="50" relative="1" as="geometry">
            <Array as="points">
              <mxPoint x="332" y="643" />
              <mxPoint x="543" y="643" />
              <mxPoint x="543" y="203" />
              <mxPoint x="-17" y="203" />
            </Array>
          </mxGeometry>
        </mxCell>
        <mxCell id="edge33" value="" style="html=1;rounded=1;edgeStyle=orthogonalEdgeStyle;dashed=0;startArrow=diamondThinstartSize=12;endArrow=openThin;endSize=12;strokeColor=#595959;exitX=0.250;exitY=0.000;exitDx=0;exitDy=0;entryX=0.500;entryY=0.000;entryDx=0;entryDy=0;" parent="1" source="node9" target="node13" edge="1">
          <mxGeometry width="50" height="50" relative="1" as="geometry">
            <Array as="points">
              <mxPoint x="194" y="823" />
              <mxPoint x="103" y="823" />
              <mxPoint x="103" y="1263" />
              <mxPoint x="383" y="1263" />
            </Array>
          </mxGeometry>
        </mxCell>
        <mxCell id="label198" value="1" style="edgeLabel;resizable=0;html=1;align=left;verticalAlign=top;strokeColor=default;" parent="edge33" vertex="1" connectable="0">
          <mxGeometry x="92" y="960" as="geometry" />
        </mxCell>
        <mxCell id="label202" value="*" style="edgeLabel;resizable=0;html=1;align=left;verticalAlign=top;strokeColor=default;" parent="edge33" vertex="1" connectable="0">
          <mxGeometry x="285" y="1243" as="geometry" />
        </mxCell>
        <mxCell id="label203" value="categories" style="edgeLabel;resizable=0;html=1;align=left;verticalAlign=top;strokeColor=default;" parent="edge33" vertex="1" connectable="0">
          <mxGeometry x="103" y="1253" as="geometry" />
        </mxCell>
        <mxCell id="edge25" value="" style="html=1;rounded=1;edgeStyle=orthogonalEdgeStyle;dashed=0;startArrow=diamondThinstartSize=12;endArrow=openThin;endSize=12;strokeColor=#595959;exitX=0.250;exitY=0.000;exitDx=0;exitDy=0;entryX=0.500;entryY=1.000;entryDx=0;entryDy=0;" parent="1" source="node9" target="node3" edge="1">
          <mxGeometry width="50" height="50" relative="1" as="geometry">
            <Array as="points">
              <mxPoint x="194" y="803" />
              <mxPoint x="203" y="803" />
              <mxPoint x="203" y="643" />
              <mxPoint x="103" y="643" />
              <mxPoint x="103" y="363" />
              <mxPoint x="143" y="363" />
            </Array>
          </mxGeometry>
        </mxCell>
        <mxCell id="label150" value="1" style="edgeLabel;resizable=0;html=1;align=left;verticalAlign=top;strokeColor=default;" parent="edge25" vertex="1" connectable="0">
          <mxGeometry x="173" y="623" as="geometry" />
        </mxCell>
        <mxCell id="label154" value="*" style="edgeLabel;resizable=0;html=1;align=left;verticalAlign=top;strokeColor=default;" parent="edge25" vertex="1" connectable="0">
          <mxGeometry x="119" y="343" as="geometry" />
        </mxCell>
        <mxCell id="label155" value="userInteractions" style="edgeLabel;resizable=0;html=1;align=left;verticalAlign=top;strokeColor=default;" parent="edge25" vertex="1" connectable="0">
          <mxGeometry x="143" y="341" as="geometry" />
        </mxCell>
        <mxCell id="edge16" value="" style="html=1;rounded=1;edgeStyle=orthogonalEdgeStyle;dashed=0;startArrow=diamondThinstartSize=12;endArrow=openThin;endSize=12;strokeColor=#595959;exitX=0.250;exitY=0.000;exitDx=0;exitDy=0;entryX=0.500;entryY=1.000;entryDx=0;entryDy=0;" parent="1" source="node9" target="node1" edge="1">
          <mxGeometry width="50" height="50" relative="1" as="geometry">
            <Array as="points">
              <mxPoint x="194" y="803" />
              <mxPoint x="203" y="803" />
              <mxPoint x="203" y="623" />
              <mxPoint x="423" y="623" />
            </Array>
          </mxGeometry>
        </mxCell>
        <mxCell id="label96" value="1" style="edgeLabel;resizable=0;html=1;align=left;verticalAlign=top;strokeColor=default;" parent="edge16" vertex="1" connectable="0">
          <mxGeometry x="344" y="603" as="geometry" />
        </mxCell>
        <mxCell id="label100" value="*" style="edgeLabel;resizable=0;html=1;align=left;verticalAlign=top;strokeColor=default;" parent="edge16" vertex="1" connectable="0">
          <mxGeometry x="382" y="603" as="geometry" />
        </mxCell>
        <mxCell id="label101" value="readHistory" style="edgeLabel;resizable=0;html=1;align=left;verticalAlign=top;strokeColor=default;" parent="edge16" vertex="1" connectable="0">
          <mxGeometry x="423" y="332" as="geometry" />
        </mxCell>
        <mxCell id="edge30" value="" style="html=1;rounded=1;edgeStyle=orthogonalEdgeStyle;dashed=0;startArrow=diamondThinstartSize=12;endArrow=openThin;endSize=12;strokeColor=#595959;exitX=0.250;exitY=0.000;exitDx=0;exitDy=0;entryX=0.500;entryY=1.000;entryDx=0;entryDy=0;" parent="1" source="node9" target="node14" edge="1">
          <mxGeometry width="50" height="50" relative="1" as="geometry">
            <Array as="points">
              <mxPoint x="194" y="803" />
              <mxPoint x="203" y="803" />
              <mxPoint x="203" y="703" />
              <mxPoint x="63" y="703" />
              <mxPoint x="63" y="543" />
              <mxPoint x="-17" y="543" />
            </Array>
          </mxGeometry>
        </mxCell>
        <mxCell id="label180" value="1" style="edgeLabel;resizable=0;html=1;align=left;verticalAlign=top;strokeColor=default;" parent="edge30" vertex="1" connectable="0">
          <mxGeometry x="163" y="683" as="geometry" />
        </mxCell>
        <mxCell id="label184" value="*" style="edgeLabel;resizable=0;html=1;align=left;verticalAlign=top;strokeColor=default;" parent="edge30" vertex="1" connectable="0">
          <mxGeometry x="19" y="523" as="geometry" />
        </mxCell>
        <mxCell id="label185" value="reportedNews" style="edgeLabel;resizable=0;html=1;align=left;verticalAlign=top;strokeColor=default;" parent="edge30" vertex="1" connectable="0">
          <mxGeometry x="63" y="573" as="geometry" />
        </mxCell>
        <mxCell id="edge35" value="" style="html=1;rounded=1;edgeStyle=orthogonalEdgeStyle;dashed=0;startArrow=diamondThinstartSize=12;endArrow=openThin;endSize=12;strokeColor=#595959;exitX=0.250;exitY=0.000;exitDx=0;exitDy=0;entryX=0.500;entryY=1.001;entryDx=0;entryDy=0;" parent="1" source="node9" target="node6" edge="1">
          <mxGeometry width="50" height="50" relative="1" as="geometry">
            <Array as="points">
              <mxPoint x="194" y="803" />
              <mxPoint x="203" y="803" />
              <mxPoint x="203" y="603" />
              <mxPoint x="303" y="603" />
            </Array>
          </mxGeometry>
        </mxCell>
        <mxCell id="label210" value="1" style="edgeLabel;resizable=0;html=1;align=left;verticalAlign=top;strokeColor=default;" parent="edge35" vertex="1" connectable="0">
          <mxGeometry x="192" y="660" as="geometry" />
        </mxCell>
        <mxCell id="label214" value="*" style="edgeLabel;resizable=0;html=1;align=left;verticalAlign=top;strokeColor=default;" parent="edge35" vertex="1" connectable="0">
          <mxGeometry x="294" y="545" as="geometry" />
        </mxCell>
        <mxCell id="label215" value="savedNews" style="edgeLabel;resizable=0;html=1;align=left;verticalAlign=top;strokeColor=default;" parent="edge35" vertex="1" connectable="0">
          <mxGeometry x="303" y="521" as="geometry" />
        </mxCell>
        <mxCell id="edge24" value="" style="html=1;rounded=1;edgeStyle=orthogonalEdgeStyle;dashed=0;startArrow=diamondThinstartSize=12;endArrow=openThin;endSize=12;strokeColor=#595959;exitX=0.500;exitY=0.000;exitDx=0;exitDy=0;entryX=0.250;entryY=0.000;entryDx=0;entryDy=0;" parent="1" source="node13" target="node8" edge="1">
          <mxGeometry width="50" height="50" relative="1" as="geometry">
            <Array as="points">
              <mxPoint x="383" y="1283" />
              <mxPoint x="143" y="1283" />
              <mxPoint x="143" y="1583" />
              <mxPoint x="463" y="1583" />
            </Array>
          </mxGeometry>
        </mxCell>
        <mxCell id="label144" value="1" style="edgeLabel;resizable=0;html=1;align=left;verticalAlign=top;strokeColor=default;" parent="edge24" vertex="1" connectable="0">
          <mxGeometry x="191" y="1563" as="geometry" />
        </mxCell>
        <mxCell id="label148" value="*" style="edgeLabel;resizable=0;html=1;align=left;verticalAlign=top;strokeColor=default;" parent="edge24" vertex="1" connectable="0">
          <mxGeometry x="405" y="1563" as="geometry" />
        </mxCell>
        <mxCell id="label149" value="keywords" style="edgeLabel;resizable=0;html=1;align=left;verticalAlign=top;strokeColor=default;" parent="edge24" vertex="1" connectable="0">
          <mxGeometry x="355" y="1583" as="geometry" />
        </mxCell>
        <mxCell id="edge22" value="" style="html=1;rounded=1;edgeStyle=orthogonalEdgeStyle;dashed=0;startArrow=diamondThinstartSize=12;endArrow=openThin;endSize=12;strokeColor=#595959;exitX=0.500;exitY=0.000;exitDx=0;exitDy=0;entryX=0.250;entryY=0.000;entryDx=0;entryDy=0;" parent="1" source="node13" target="node9" edge="1">
          <mxGeometry width="50" height="50" relative="1" as="geometry">
            <Array as="points">
              <mxPoint x="383" y="1303" />
              <mxPoint x="423" y="1303" />
              <mxPoint x="423" y="783" />
              <mxPoint x="194" y="783" />
            </Array>
          </mxGeometry>
        </mxCell>
        <mxCell id="label132" value="1" style="edgeLabel;resizable=0;html=1;align=left;verticalAlign=top;strokeColor=default;" parent="edge22" vertex="1" connectable="0">
          <mxGeometry x="412" y="1120" as="geometry" />
        </mxCell>
        <mxCell id="label136" value="*" style="edgeLabel;resizable=0;html=1;align=left;verticalAlign=top;strokeColor=default;" parent="edge22" vertex="1" connectable="0">
          <mxGeometry x="414" y="946" as="geometry" />
        </mxCell>
        <mxCell id="label137" value="news" style="edgeLabel;resizable=0;html=1;align=left;verticalAlign=top;strokeColor=default;" parent="edge22" vertex="1" connectable="0">
          <mxGeometry x="423" y="1120" as="geometry" />
        </mxCell>
        <mxCell id="edge14" value="" style="html=1;rounded=1;edgeStyle=orthogonalEdgeStyle;dashed=0;startArrow=diamondThinstartSize=12;endArrow=openThin;endSize=12;strokeColor=#595959;exitX=0.500;exitY=0.000;exitDx=0;exitDy=0;entryX=0.500;entryY=1.000;entryDx=0;entryDy=0;" parent="1" source="node13" target="node5" edge="1">
          <mxGeometry width="50" height="50" relative="1" as="geometry">
            <Array as="points">
              <mxPoint x="383" y="1303" />
              <mxPoint x="423" y="1303" />
              <mxPoint x="423" y="1203" />
              <mxPoint x="563" y="1203" />
            </Array>
          </mxGeometry>
        </mxCell>
        <mxCell id="label84" value="1" style="edgeLabel;resizable=0;html=1;align=left;verticalAlign=top;strokeColor=default;" parent="edge14" vertex="1" connectable="0">
          <mxGeometry x="398" y="1283" as="geometry" />
        </mxCell>
        <mxCell id="label88" value="*" style="edgeLabel;resizable=0;html=1;align=left;verticalAlign=top;strokeColor=default;" parent="edge14" vertex="1" connectable="0">
          <mxGeometry x="554" y="1097" as="geometry" />
        </mxCell>
        <mxCell id="label89" value="notificationConfigurations" style="edgeLabel;resizable=0;html=1;align=left;verticalAlign=top;strokeColor=default;" parent="edge14" vertex="1" connectable="0">
          <mxGeometry x="563" y="1097" as="geometry" />
        </mxCell>
        <mxCell id="edge5" value="" style="html=1;rounded=1;edgeStyle=orthogonalEdgeStyle;dashed=0;startArrow=none;endArrow=block;endSize=12;strokeColor=#000082;exitX=0.500;exitY=0.000;exitDx=0;exitDy=0;entryX=0.500;entryY=1.000;entryDx=0;entryDy=0;" parent="1" source="node3" target="node12" edge="1">
          <mxGeometry width="50" height="50" relative="1" as="geometry">
            <Array as="points">
              <mxPoint x="143" y="203" />
              <mxPoint x="-17" y="203" />
            </Array>
          </mxGeometry>
        </mxCell>
        <mxCell id="edge31" value="" style="html=1;rounded=1;edgeStyle=orthogonalEdgeStyle;dashed=0;startArrow=diamondThinstartSize=12;endArrow=openThin;endSize=12;strokeColor=#595959;exitX=0.500;exitY=1.000;exitDx=0;exitDy=0;entryX=0.250;entryY=0.000;entryDx=0;entryDy=0;" parent="1" source="node3" target="node9" edge="1">
          <mxGeometry width="50" height="50" relative="1" as="geometry">
            <Array as="points">
              <mxPoint x="143" y="603" />
              <mxPoint x="-57" y="603" />
              <mxPoint x="-57" y="763" />
              <mxPoint x="194" y="763" />
            </Array>
          </mxGeometry>
        </mxCell>
        <mxCell id="label186" value="1" style="edgeLabel;resizable=0;html=1;align=left;verticalAlign=top;strokeColor=default;" parent="edge31" vertex="1" connectable="0">
          <mxGeometry x="132" y="417" as="geometry" />
        </mxCell>
        <mxCell id="label190" value="1" style="edgeLabel;resizable=0;html=1;align=left;verticalAlign=top;strokeColor=default;" parent="edge31" vertex="1" connectable="0">
          <mxGeometry x="132" y="505" as="geometry" />
        </mxCell>
        <mxCell id="label191" value="news" style="edgeLabel;resizable=0;html=1;align=left;verticalAlign=top;strokeColor=default;" parent="edge31" vertex="1" connectable="0">
          <mxGeometry x="143" y="505" as="geometry" />
        </mxCell>
        <mxCell id="edge15" value="" style="html=1;rounded=1;edgeStyle=orthogonalEdgeStyle;dashed=0;startArrow=diamondThinstartSize=12;endArrow=openThin;endSize=12;strokeColor=#595959;exitX=0.500;exitY=1.000;exitDx=0;exitDy=0;entryX=0.250;entryY=0.000;entryDx=0;entryDy=0;" parent="1" source="node3" target="node2" edge="1">
          <mxGeometry width="50" height="50" relative="1" as="geometry">
            <Array as="points">
              <mxPoint x="143" y="603" />
              <mxPoint x="-57" y="603" />
              <mxPoint x="-57" y="623" />
              <mxPoint x="-97" y="623" />
              <mxPoint x="-97" y="1823" />
              <mxPoint x="-17" y="1823" />
              <mxPoint x="-17" y="1843" />
              <mxPoint x="680" y="1843" />
            </Array>
          </mxGeometry>
        </mxCell>
        <mxCell id="label90" value="1" style="edgeLabel;resizable=0;html=1;align=left;verticalAlign=top;strokeColor=default;" parent="edge15" vertex="1" connectable="0">
          <mxGeometry x="-82" y="603" as="geometry" />
        </mxCell>
        <mxCell id="label94" value="1" style="edgeLabel;resizable=0;html=1;align=left;verticalAlign=top;strokeColor=default;" parent="edge15" vertex="1" connectable="0">
          <mxGeometry x="500" y="1823" as="geometry" />
        </mxCell>
        <mxCell id="label95" value="interactionUser" style="edgeLabel;resizable=0;html=1;align=left;verticalAlign=top;strokeColor=default;" parent="edge15" vertex="1" connectable="0">
          <mxGeometry x="461" y="1843" as="geometry" />
        </mxCell>
        <mxCell id="edge12" value="" style="html=1;rounded=1;edgeStyle=orthogonalEdgeStyle;dashed=0;startArrow=none;endArrow=block;endSize=12;strokeColor=#000082;exitX=0.500;exitY=0.000;exitDx=0;exitDy=0;entryX=0.500;entryY=1.000;entryDx=0;entryDy=0;" parent="1" source="node1" target="node12" edge="1">
          <mxGeometry width="50" height="50" relative="1" as="geometry">
            <Array as="points">
              <mxPoint x="423" y="203" />
              <mxPoint x="-17" y="203" />
            </Array>
          </mxGeometry>
        </mxCell>
        <mxCell id="edge18" value="" style="html=1;rounded=1;edgeStyle=orthogonalEdgeStyle;dashed=0;startArrow=diamondThinstartSize=12;endArrow=openThin;endSize=12;strokeColor=#595959;exitX=0.500;exitY=1.000;exitDx=0;exitDy=0;entryX=0.250;entryY=0.000;entryDx=0;entryDy=0;" parent="1" source="node1" target="node9" edge="1">
          <mxGeometry width="50" height="50" relative="1" as="geometry">
            <Array as="points">
              <mxPoint x="423" y="563" />
              <mxPoint x="23" y="563" />
              <mxPoint x="23" y="683" />
              <mxPoint x="-57" y="683" />
              <mxPoint x="-57" y="763" />
              <mxPoint x="194" y="763" />
            </Array>
          </mxGeometry>
        </mxCell>
        <mxCell id="label108" value="1" style="edgeLabel;resizable=0;html=1;align=left;verticalAlign=top;strokeColor=default;" parent="edge18" vertex="1" connectable="0">
          <mxGeometry x="412" y="376" as="geometry" />
        </mxCell>
        <mxCell id="label112" value="1" style="edgeLabel;resizable=0;html=1;align=left;verticalAlign=top;strokeColor=default;" parent="edge18" vertex="1" connectable="0">
          <mxGeometry x="-2" y="663" as="geometry" />
        </mxCell>
        <mxCell id="label113" value="news" style="edgeLabel;resizable=0;html=1;align=left;verticalAlign=top;strokeColor=default;" parent="edge18" vertex="1" connectable="0">
          <mxGeometry x="114" y="763" as="geometry" />
        </mxCell>
        <mxCell id="edge32" value="" style="html=1;rounded=1;edgeStyle=orthogonalEdgeStyle;dashed=0;startArrow=diamondThinstartSize=12;endArrow=openThin;endSize=12;strokeColor=#595959;exitX=0.500;exitY=1.000;exitDx=0;exitDy=0;entryX=0.250;entryY=0.000;entryDx=0;entryDy=0;" parent="1" source="node1" target="node2" edge="1">
          <mxGeometry width="50" height="50" relative="1" as="geometry">
            <Array as="points">
              <mxPoint x="423" y="563" />
              <mxPoint x="23" y="563" />
              <mxPoint x="23" y="703" />
              <mxPoint x="-17" y="703" />
              <mxPoint x="-17" y="1843" />
              <mxPoint x="680" y="1843" />
            </Array>
          </mxGeometry>
        </mxCell>
        <mxCell id="label192" value="1" style="edgeLabel;resizable=0;html=1;align=left;verticalAlign=top;strokeColor=default;" parent="edge32" vertex="1" connectable="0">
          <mxGeometry x="318" y="543" as="geometry" />
        </mxCell>
        <mxCell id="label196" value="1" style="edgeLabel;resizable=0;html=1;align=left;verticalAlign=top;strokeColor=default;" parent="edge32" vertex="1" connectable="0">
          <mxGeometry x="-28" y="1548" as="geometry" />
        </mxCell>
        <mxCell id="label197" value="readBy" style="edgeLabel;resizable=0;html=1;align=left;verticalAlign=top;strokeColor=default;" parent="edge32" vertex="1" connectable="0">
          <mxGeometry x="-17" y="1548" as="geometry" />
        </mxCell>
        <mxCell id="edge2" value="" style="html=1;rounded=1;edgeStyle=orthogonalEdgeStyle;dashed=0;startArrow=none;endArrow=block;endSize=12;strokeColor=#000082;exitX=0.750;exitY=0.000;exitDx=0;exitDy=0;entryX=0.500;entryY=1.000;entryDx=0;entryDy=0;" parent="1" source="node0" target="node12" edge="1">
          <mxGeometry width="50" height="50" relative="1" as="geometry">
            <Array as="points">
              <mxPoint x="1147" y="2323" />
              <mxPoint x="1143" y="2323" />
              <mxPoint x="1143" y="203" />
              <mxPoint x="-17" y="203" />
            </Array>
          </mxGeometry>
        </mxCell>
        <mxCell id="edge40" value="" style="html=1;rounded=1;edgeStyle=orthogonalEdgeStyle;dashed=0;startArrow=diamondThinstartSize=12;endArrow=openThin;endSize=12;strokeColor=#595959;exitX=0.250;exitY=0.000;exitDx=0;exitDy=0;entryX=0.250;entryY=0.000;entryDx=0;entryDy=0;" parent="1" source="node0" target="node2" edge="1">
          <mxGeometry width="50" height="50" relative="1" as="geometry">
            <Array as="points">
              <mxPoint x="1019" y="2323" />
              <mxPoint x="543" y="2323" />
              <mxPoint x="543" y="1883" />
              <mxPoint x="680" y="1883" />
            </Array>
          </mxGeometry>
        </mxCell>
        <mxCell id="label240" value="1" style="edgeLabel;resizable=0;html=1;align=left;verticalAlign=top;strokeColor=default;" parent="edge40" vertex="1" connectable="0">
          <mxGeometry x="934" y="2303" as="geometry" />
        </mxCell>
        <mxCell id="label244" value="1" style="edgeLabel;resizable=0;html=1;align=left;verticalAlign=top;strokeColor=default;" parent="edge40" vertex="1" connectable="0">
          <mxGeometry x="855" y="2303" as="geometry" />
        </mxCell>
        <mxCell id="label245" value="receiver" style="edgeLabel;resizable=0;html=1;align=left;verticalAlign=top;strokeColor=default;" parent="edge40" vertex="1" connectable="0">
          <mxGeometry x="837" y="2323" as="geometry" />
        </mxCell>
        <mxCell id="edge7" value="" style="html=1;rounded=1;edgeStyle=orthogonalEdgeStyle;dashed=0;startArrow=none;endArrow=block;endSize=12;strokeColor=#000082;exitX=0.500;exitY=0.000;exitDx=0;exitDy=0;entryX=0.500;entryY=1.000;entryDx=0;entryDy=0;" parent="1" source="node5" target="node12" edge="1">
          <mxGeometry width="50" height="50" relative="1" as="geometry">
            <Array as="points">
              <mxPoint x="563" y="723" />
              <mxPoint x="783" y="723" />
              <mxPoint x="783" y="203" />
              <mxPoint x="-17" y="203" />
            </Array>
          </mxGeometry>
        </mxCell>
        <mxCell id="edge42" value="" style="html=1;rounded=1;edgeStyle=orthogonalEdgeStyle;dashed=0;startArrow=diamondThinstartSize=12;endArrow=openThin;endSize=12;strokeColor=#595959;exitX=0.500;exitY=1.000;exitDx=0;exitDy=0;entryX=0.500;entryY=0.000;entryDx=0;entryDy=0;" parent="1" source="node5" target="node13" edge="1">
          <mxGeometry width="50" height="50" relative="1" as="geometry">
            <Array as="points">
              <mxPoint x="563" y="1183" />
              <mxPoint x="143" y="1183" />
              <mxPoint x="143" y="1243" />
              <mxPoint x="103" y="1243" />
              <mxPoint x="103" y="1263" />
              <mxPoint x="383" y="1263" />
            </Array>
          </mxGeometry>
        </mxCell>
        <mxCell id="label252" value="1" style="edgeLabel;resizable=0;html=1;align=left;verticalAlign=top;strokeColor=default;" parent="edge42" vertex="1" connectable="0">
          <mxGeometry x="348" y="1163" as="geometry" />
        </mxCell>
        <mxCell id="label256" value="1" style="edgeLabel;resizable=0;html=1;align=left;verticalAlign=top;strokeColor=default;" parent="edge42" vertex="1" connectable="0">
          <mxGeometry x="118" y="1223" as="geometry" />
        </mxCell>
        <mxCell id="label257" value="newsCategory" style="edgeLabel;resizable=0;html=1;align=left;verticalAlign=top;strokeColor=default;" parent="edge42" vertex="1" connectable="0">
          <mxGeometry x="143" y="1233" as="geometry" />
        </mxCell>
        <mxCell id="edge41" value="" style="html=1;rounded=1;edgeStyle=orthogonalEdgeStyle;dashed=0;startArrow=diamondThinstartSize=12;endArrow=openThin;endSize=12;strokeColor=#595959;exitX=0.500;exitY=1.000;exitDx=0;exitDy=0;entryX=0.250;entryY=0.000;entryDx=0;entryDy=0;" parent="1" source="node5" target="node2" edge="1">
          <mxGeometry width="50" height="50" relative="1" as="geometry">
            <Array as="points">
              <mxPoint x="563" y="1183" />
              <mxPoint x="143" y="1183" />
              <mxPoint x="143" y="1203" />
              <mxPoint x="103" y="1203" />
              <mxPoint x="103" y="1823" />
              <mxPoint x="-17" y="1823" />
              <mxPoint x="-17" y="1843" />
              <mxPoint x="680" y="1843" />
            </Array>
          </mxGeometry>
        </mxCell>
        <mxCell id="label246" value="1" style="edgeLabel;resizable=0;html=1;align=left;verticalAlign=top;strokeColor=default;" parent="edge41" vertex="1" connectable="0">
          <mxGeometry x="453" y="1163" as="geometry" />
        </mxCell>
        <mxCell id="label250" value="1" style="edgeLabel;resizable=0;html=1;align=left;verticalAlign=top;strokeColor=default;" parent="edge41" vertex="1" connectable="0">
          <mxGeometry x="92" y="1503" as="geometry" />
        </mxCell>
        <mxCell id="label251" value="user" style="edgeLabel;resizable=0;html=1;align=left;verticalAlign=top;strokeColor=default;" parent="edge41" vertex="1" connectable="0">
          <mxGeometry x="103" y="1658" as="geometry" />
        </mxCell>
        <mxCell id="edge1" value="" style="html=1;rounded=1;edgeStyle=orthogonalEdgeStyle;dashed=0;startArrow=none;endArrow=block;endSize=12;strokeColor=#000082;exitX=0.500;exitY=0.000;exitDx=0;exitDy=0;entryX=0.500;entryY=1.000;entryDx=0;entryDy=0;" parent="1" source="node10" target="node12" edge="1">
          <mxGeometry width="50" height="50" relative="1" as="geometry">
            <Array as="points">
              <mxPoint x="943" y="203" />
              <mxPoint x="-17" y="203" />
            </Array>
          </mxGeometry>
        </mxCell>
        <mxCell id="edge19" value="" style="html=1;rounded=1;edgeStyle=orthogonalEdgeStyle;dashed=0;startArrow=diamondThinstartSize=12;endArrow=openThin;endSize=12;strokeColor=#595959;exitX=0.500;exitY=1.001;exitDx=0;exitDy=0;entryX=0.250;entryY=0.000;entryDx=0;entryDy=0;" parent="1" source="node10" target="node4" edge="1">
          <mxGeometry width="50" height="50" relative="1" as="geometry">
            <Array as="points">
              <mxPoint x="943" y="903" />
              <mxPoint x="904" y="903" />
            </Array>
          </mxGeometry>
        </mxCell>
        <mxCell id="label114" value="1" style="edgeLabel;resizable=0;html=1;align=left;verticalAlign=top;strokeColor=default;" parent="edge19" vertex="1" connectable="0">
          <mxGeometry x="932" y="512" as="geometry" />
        </mxCell>
        <mxCell id="label118" value="*" style="edgeLabel;resizable=0;html=1;align=left;verticalAlign=top;strokeColor=default;" parent="edge19" vertex="1" connectable="0">
          <mxGeometry x="934" y="853" as="geometry" />
        </mxCell>
        <mxCell id="label119" value="roles" style="edgeLabel;resizable=0;html=1;align=left;verticalAlign=top;strokeColor=default;" parent="edge19" vertex="1" connectable="0">
          <mxGeometry x="943" y="893" as="geometry" />
        </mxCell>
        <mxCell id="edge9" value="" style="html=1;rounded=1;edgeStyle=orthogonalEdgeStyle;dashed=0;startArrow=none;endArrow=block;endSize=12;strokeColor=#000082;exitX=0.500;exitY=0.000;exitDx=0;exitDy=0;entryX=0.500;entryY=1.000;entryDx=0;entryDy=0;" parent="1" source="node14" target="node12" edge="1">
          <mxGeometry width="50" height="50" relative="1" as="geometry">
            <Array as="points" />
          </mxGeometry>
        </mxCell>
        <mxCell id="edge37" value="" style="html=1;rounded=1;edgeStyle=orthogonalEdgeStyle;dashed=0;startArrow=diamondThinstartSize=12;endArrow=openThin;endSize=12;strokeColor=#595959;exitX=0.500;exitY=1.000;exitDx=0;exitDy=0;entryX=0.250;entryY=0.000;entryDx=0;entryDy=0;" parent="1" source="node14" target="node9" edge="1">
          <mxGeometry width="50" height="50" relative="1" as="geometry">
            <Array as="points">
              <mxPoint x="-17" y="563" />
              <mxPoint x="-97" y="563" />
              <mxPoint x="-97" y="743" />
              <mxPoint x="-57" y="743" />
              <mxPoint x="-57" y="763" />
              <mxPoint x="194" y="763" />
            </Array>
          </mxGeometry>
        </mxCell>
        <mxCell id="label222" value="1" style="edgeLabel;resizable=0;html=1;align=left;verticalAlign=top;strokeColor=default;" parent="edge37" vertex="1" connectable="0">
          <mxGeometry x="-82" y="543" as="geometry" />
        </mxCell>
        <mxCell id="label226" value="1" style="edgeLabel;resizable=0;html=1;align=left;verticalAlign=top;strokeColor=default;" parent="edge37" vertex="1" connectable="0">
          <mxGeometry x="-82" y="723" as="geometry" />
        </mxCell>
        <mxCell id="label227" value="reportedNews" style="edgeLabel;resizable=0;html=1;align=left;verticalAlign=top;strokeColor=default;" parent="edge37" vertex="1" connectable="0">
          <mxGeometry x="-98" y="763" as="geometry" />
        </mxCell>
        <mxCell id="edge28" value="" style="html=1;rounded=1;edgeStyle=orthogonalEdgeStyle;dashed=0;startArrow=diamondThinstartSize=12;endArrow=openThin;endSize=12;strokeColor=#595959;exitX=0.500;exitY=1.000;exitDx=0;exitDy=0;entryX=0.250;entryY=0.000;entryDx=0;entryDy=0;" parent="1" source="node14" target="node2" edge="1">
          <mxGeometry width="50" height="50" relative="1" as="geometry">
            <Array as="points">
              <mxPoint x="-17" y="563" />
              <mxPoint x="-97" y="563" />
              <mxPoint x="-97" y="583" />
              <mxPoint x="-137" y="583" />
              <mxPoint x="-137" y="1823" />
              <mxPoint x="-17" y="1823" />
              <mxPoint x="-17" y="1843" />
              <mxPoint x="680" y="1843" />
            </Array>
          </mxGeometry>
        </mxCell>
        <mxCell id="label168" value="1" style="edgeLabel;resizable=0;html=1;align=left;verticalAlign=top;strokeColor=default;" parent="edge28" vertex="1" connectable="0">
          <mxGeometry x="-148" y="563" as="geometry" />
        </mxCell>
        <mxCell id="label172" value="1" style="edgeLabel;resizable=0;html=1;align=left;verticalAlign=top;strokeColor=default;" parent="edge28" vertex="1" connectable="0">
          <mxGeometry x="-82" y="1803" as="geometry" />
        </mxCell>
        <mxCell id="label173" value="reportedBy" style="edgeLabel;resizable=0;html=1;align=left;verticalAlign=top;strokeColor=default;" parent="edge28" vertex="1" connectable="0">
          <mxGeometry x="300" y="1843" as="geometry" />
        </mxCell>
        <mxCell id="edge4" value="" style="html=1;rounded=1;edgeStyle=orthogonalEdgeStyle;dashed=0;startArrow=none;endArrow=block;endSize=12;strokeColor=#000082;exitX=0.500;exitY=0.000;exitDx=0;exitDy=0;entryX=0.500;entryY=1.000;entryDx=0;entryDy=0;" parent="1" source="node6" target="node12" edge="1">
          <mxGeometry width="50" height="50" relative="1" as="geometry">
            <Array as="points">
              <mxPoint x="303" y="203" />
              <mxPoint x="-17" y="203" />
            </Array>
          </mxGeometry>
        </mxCell>
        <mxCell id="edge39" value="" style="html=1;rounded=1;edgeStyle=orthogonalEdgeStyle;dashed=0;startArrow=diamondThinstartSize=12;endArrow=openThin;endSize=12;strokeColor=#595959;exitX=0.500;exitY=1.000;exitDx=0;exitDy=0;entryX=0.250;entryY=0.000;entryDx=0;entryDy=0;" parent="1" source="node6" target="node9" edge="1">
          <mxGeometry width="50" height="50" relative="1" as="geometry">
            <Array as="points">
              <mxPoint x="303" y="583" />
              <mxPoint x="-17" y="583" />
              <mxPoint x="-17" y="663" />
              <mxPoint x="-57" y="663" />
              <mxPoint x="-57" y="763" />
              <mxPoint x="194" y="763" />
            </Array>
          </mxGeometry>
        </mxCell>
        <mxCell id="label234" value="1" style="edgeLabel;resizable=0;html=1;align=left;verticalAlign=top;strokeColor=default;" parent="edge39" vertex="1" connectable="0">
          <mxGeometry x="218" y="563" as="geometry" />
        </mxCell>
        <mxCell id="label238" value="1" style="edgeLabel;resizable=0;html=1;align=left;verticalAlign=top;strokeColor=default;" parent="edge39" vertex="1" connectable="0">
          <mxGeometry x="-28" y="653" as="geometry" />
        </mxCell>
        <mxCell id="label239" value="newsArticle" style="edgeLabel;resizable=0;html=1;align=left;verticalAlign=top;strokeColor=default;" parent="edge39" vertex="1" connectable="0">
          <mxGeometry x="-17" y="633" as="geometry" />
        </mxCell>
        <mxCell id="edge27" value="" style="html=1;rounded=1;edgeStyle=orthogonalEdgeStyle;dashed=0;startArrow=diamondThinstartSize=12;endArrow=openThin;endSize=12;strokeColor=#595959;exitX=0.500;exitY=1.000;exitDx=0;exitDy=0;entryX=0.250;entryY=0.000;entryDx=0;entryDy=0;" parent="1" source="node6" target="node2" edge="1">
          <mxGeometry width="50" height="50" relative="1" as="geometry">
            <Array as="points">
              <mxPoint x="303" y="583" />
              <mxPoint x="-17" y="583" />
              <mxPoint x="-17" y="643" />
              <mxPoint x="-57" y="643" />
              <mxPoint x="-57" y="1823" />
              <mxPoint x="-17" y="1823" />
              <mxPoint x="-17" y="1843" />
              <mxPoint x="680" y="1843" />
            </Array>
          </mxGeometry>
        </mxCell>
        <mxCell id="label162" value="1" style="edgeLabel;resizable=0;html=1;align=left;verticalAlign=top;strokeColor=default;" parent="edge27" vertex="1" connectable="0">
          <mxGeometry x="-42" y="623" as="geometry" />
        </mxCell>
        <mxCell id="label166" value="1" style="edgeLabel;resizable=0;html=1;align=left;verticalAlign=top;strokeColor=default;" parent="edge27" vertex="1" connectable="0">
          <mxGeometry x="-42" y="1803" as="geometry" />
        </mxCell>
        <mxCell id="label167" value="savedBy" style="edgeLabel;resizable=0;html=1;align=left;verticalAlign=top;strokeColor=default;" parent="edge27" vertex="1" connectable="0">
          <mxGeometry x="680" y="1833" as="geometry" />
        </mxCell>
        <mxCell id="edge11" value="" style="html=1;rounded=1;edgeStyle=orthogonalEdgeStyle;dashed=0;startArrow=none;endArrow=block;endSize=12;strokeColor=#000082;exitX=0.750;exitY=0.000;exitDx=0;exitDy=0;entryX=0.500;entryY=1.000;entryDx=0;entryDy=0;" parent="1" source="node2" target="node12" edge="1">
          <mxGeometry width="50" height="50" relative="1" as="geometry">
            <Array as="points">
              <mxPoint x="887" y="1803" />
              <mxPoint x="1103" y="1803" />
              <mxPoint x="1103" y="203" />
              <mxPoint x="-17" y="203" />
            </Array>
          </mxGeometry>
        </mxCell>
        <mxCell id="edge17" value="" style="html=1;rounded=1;edgeStyle=orthogonalEdgeStyle;dashed=0;startArrow=diamondThinstartSize=12;endArrow=openThin;endSize=12;strokeColor=#595959;exitX=0.250;exitY=0.000;exitDx=0;exitDy=0;entryX=0.250;entryY=0.000;entryDx=0;entryDy=0;" parent="1" source="node2" target="node8" edge="1">
          <mxGeometry width="50" height="50" relative="1" as="geometry">
            <Array as="points">
              <mxPoint x="680" y="1863" />
              <mxPoint x="683" y="1863" />
              <mxPoint x="683" y="1803" />
              <mxPoint x="663" y="1803" />
              <mxPoint x="663" y="1603" />
              <mxPoint x="463" y="1603" />
            </Array>
          </mxGeometry>
        </mxCell>
        <mxCell id="label102" value="1" style="edgeLabel;resizable=0;html=1;align=left;verticalAlign=top;strokeColor=default;" parent="edge17" vertex="1" connectable="0">
          <mxGeometry x="652" y="1743" as="geometry" />
        </mxCell>
        <mxCell id="label106" value="*" style="edgeLabel;resizable=0;html=1;align=left;verticalAlign=top;strokeColor=default;" parent="edge17" vertex="1" connectable="0">
          <mxGeometry x="654" y="1643" as="geometry" />
        </mxCell>
        <mxCell id="label107" value="keywords" style="edgeLabel;resizable=0;html=1;align=left;verticalAlign=top;strokeColor=default;" parent="edge17" vertex="1" connectable="0">
          <mxGeometry x="663" y="1693" as="geometry" />
        </mxCell>
        <mxCell id="edge21" value="" style="html=1;rounded=1;edgeStyle=orthogonalEdgeStyle;dashed=0;startArrow=diamondThinstartSize=12;endArrow=openThin;endSize=12;strokeColor=#595959;exitX=0.250;exitY=0.000;exitDx=0;exitDy=0;entryX=0.500;entryY=1.000;entryDx=0;entryDy=0;" parent="1" source="node2" target="node3" edge="1">
          <mxGeometry width="50" height="50" relative="1" as="geometry">
            <Array as="points">
              <mxPoint x="680" y="1863" />
              <mxPoint x="683" y="1863" />
              <mxPoint x="683" y="1803" />
              <mxPoint x="63" y="1803" />
              <mxPoint x="63" y="743" />
              <mxPoint x="103" y="743" />
              <mxPoint x="103" y="363" />
              <mxPoint x="143" y="363" />
            </Array>
          </mxGeometry>
        </mxCell>
        <mxCell id="label126" value="1" style="edgeLabel;resizable=0;html=1;align=left;verticalAlign=top;strokeColor=default;" parent="edge21" vertex="1" connectable="0">
          <mxGeometry x="368" y="1783" as="geometry" />
        </mxCell>
        <mxCell id="label130" value="*" style="edgeLabel;resizable=0;html=1;align=left;verticalAlign=top;strokeColor=default;" parent="edge21" vertex="1" connectable="0">
          <mxGeometry x="109" y="343" as="geometry" />
        </mxCell>
        <mxCell id="label131" value="userInteractions" style="edgeLabel;resizable=0;html=1;align=left;verticalAlign=top;strokeColor=default;" parent="edge21" vertex="1" connectable="0">
          <mxGeometry x="103" y="448" as="geometry" />
        </mxCell>
        <mxCell id="edge29" value="" style="html=1;rounded=1;edgeStyle=orthogonalEdgeStyle;dashed=0;startArrow=diamondThinstartSize=12;endArrow=openThin;endSize=12;strokeColor=#595959;exitX=0.250;exitY=0.000;exitDx=0;exitDy=0;entryX=0.500;entryY=1.000;entryDx=0;entryDy=0;" parent="1" source="node2" target="node1" edge="1">
          <mxGeometry width="50" height="50" relative="1" as="geometry">
            <Array as="points">
              <mxPoint x="680" y="1863" />
              <mxPoint x="683" y="1863" />
              <mxPoint x="683" y="1803" />
              <mxPoint x="783" y="1803" />
              <mxPoint x="783" y="743" />
              <mxPoint x="423" y="743" />
            </Array>
          </mxGeometry>
        </mxCell>
        <mxCell id="label174" value="1" style="edgeLabel;resizable=0;html=1;align=left;verticalAlign=top;strokeColor=default;" parent="edge29" vertex="1" connectable="0">
          <mxGeometry x="772" y="1528" as="geometry" />
        </mxCell>
        <mxCell id="label178" value="*" style="edgeLabel;resizable=0;html=1;align=left;verticalAlign=top;strokeColor=default;" parent="edge29" vertex="1" connectable="0">
          <mxGeometry x="414" y="332" as="geometry" />
        </mxCell>
        <mxCell id="label179" value="newsRead" style="edgeLabel;resizable=0;html=1;align=left;verticalAlign=top;strokeColor=default;" parent="edge29" vertex="1" connectable="0">
          <mxGeometry x="423" y="421" as="geometry" />
        </mxCell>
        <mxCell id="edge38" value="" style="html=1;rounded=1;edgeStyle=orthogonalEdgeStyle;dashed=0;startArrow=diamondThinstartSize=12;endArrow=openThin;endSize=12;strokeColor=#595959;exitX=0.250;exitY=0.000;exitDx=0;exitDy=0;entryX=0.250;entryY=0.000;entryDx=0;entryDy=0;" parent="1" source="node2" target="node0" edge="1">
          <mxGeometry width="50" height="50" relative="1" as="geometry">
            <Array as="points">
              <mxPoint x="680" y="1823" />
              <mxPoint x="1023" y="1823" />
              <mxPoint x="1023" y="2303" />
              <mxPoint x="1019" y="2303" />
            </Array>
          </mxGeometry>
        </mxCell>
        <mxCell id="label228" value="1" style="edgeLabel;resizable=0;html=1;align=left;verticalAlign=top;strokeColor=default;" parent="edge38" vertex="1" connectable="0">
          <mxGeometry x="1012" y="2213" as="geometry" />
        </mxCell>
        <mxCell id="label232" value="*" style="edgeLabel;resizable=0;html=1;align=left;verticalAlign=top;strokeColor=default;" parent="edge38" vertex="1" connectable="0">
          <mxGeometry x="1010" y="2293" as="geometry" />
        </mxCell>
        <mxCell id="label233" value="notifications" style="edgeLabel;resizable=0;html=1;align=left;verticalAlign=top;strokeColor=default;" parent="edge38" vertex="1" connectable="0">
          <mxGeometry x="1023" y="2293" as="geometry" />
        </mxCell>
        <mxCell id="edge23" value="" style="html=1;rounded=1;edgeStyle=orthogonalEdgeStyle;dashed=0;startArrow=diamondThinstartSize=12;endArrow=openThin;endSize=12;strokeColor=#595959;exitX=0.250;exitY=0.000;exitDx=0;exitDy=0;entryX=0.500;entryY=1.000;entryDx=0;entryDy=0;" parent="1" source="node2" target="node5" edge="1">
          <mxGeometry width="50" height="50" relative="1" as="geometry">
            <Array as="points">
              <mxPoint x="680" y="1863" />
              <mxPoint x="683" y="1863" />
              <mxPoint x="683" y="1803" />
              <mxPoint x="703" y="1803" />
              <mxPoint x="703" y="1583" />
              <mxPoint x="663" y="1583" />
              <mxPoint x="663" y="1223" />
              <mxPoint x="563" y="1223" />
            </Array>
          </mxGeometry>
        </mxCell>
        <mxCell id="label138" value="1" style="edgeLabel;resizable=0;html=1;align=left;verticalAlign=top;strokeColor=default;" parent="edge23" vertex="1" connectable="0">
          <mxGeometry x="688" y="1743" as="geometry" />
        </mxCell>
        <mxCell id="label142" value="*" style="edgeLabel;resizable=0;html=1;align=left;verticalAlign=top;strokeColor=default;" parent="edge23" vertex="1" connectable="0">
          <mxGeometry x="634" y="1203" as="geometry" />
        </mxCell>
        <mxCell id="label143" value="notificationConfigurations" style="edgeLabel;resizable=0;html=1;align=left;verticalAlign=top;strokeColor=default;" parent="edge23" vertex="1" connectable="0">
          <mxGeometry x="563" y="1131" as="geometry" />
        </mxCell>
        <mxCell id="edge26" value="" style="html=1;rounded=1;edgeStyle=orthogonalEdgeStyle;dashed=0;startArrow=diamondThinstartSize=12;endArrow=openThin;endSize=12;strokeColor=#595959;exitX=0.250;exitY=0.000;exitDx=0;exitDy=0;entryX=0.500;entryY=1.000;entryDx=0;entryDy=0;" parent="1" source="node2" target="node14" edge="1">
          <mxGeometry width="50" height="50" relative="1" as="geometry">
            <Array as="points">
              <mxPoint x="680" y="1863" />
              <mxPoint x="683" y="1863" />
              <mxPoint x="683" y="1803" />
              <mxPoint x="23" y="1803" />
              <mxPoint x="23" y="723" />
              <mxPoint x="63" y="723" />
              <mxPoint x="63" y="543" />
              <mxPoint x="-17" y="543" />
            </Array>
          </mxGeometry>
        </mxCell>
        <mxCell id="label156" value="1" style="edgeLabel;resizable=0;html=1;align=left;verticalAlign=top;strokeColor=default;" parent="edge26" vertex="1" connectable="0">
          <mxGeometry x="348" y="1783" as="geometry" />
        </mxCell>
        <mxCell id="label160" value="*" style="edgeLabel;resizable=0;html=1;align=left;verticalAlign=top;strokeColor=default;" parent="edge26" vertex="1" connectable="0">
          <mxGeometry x="-1" y="523" as="geometry" />
        </mxCell>
        <mxCell id="label161" value="reportedNews" style="edgeLabel;resizable=0;html=1;align=left;verticalAlign=top;strokeColor=default;" parent="edge26" vertex="1" connectable="0">
          <mxGeometry x="63" y="668" as="geometry" />
        </mxCell>
        <mxCell id="edge43" value="" style="html=1;rounded=1;edgeStyle=orthogonalEdgeStyle;dashed=0;startArrow=diamondThinstartSize=12;endArrow=openThin;endSize=12;strokeColor=#595959;exitX=0.250;exitY=0.000;exitDx=0;exitDy=0;entryX=0.500;entryY=1.000;entryDx=0;entryDy=0;" parent="1" source="node2" target="node6" edge="1">
          <mxGeometry width="50" height="50" relative="1" as="geometry">
            <Array as="points">
              <mxPoint x="680" y="1863" />
              <mxPoint x="683" y="1863" />
              <mxPoint x="683" y="1803" />
              <mxPoint x="743" y="1803" />
              <mxPoint x="743" y="763" />
              <mxPoint x="303" y="763" />
            </Array>
          </mxGeometry>
        </mxCell>
        <mxCell id="label258" value="1" style="edgeLabel;resizable=0;html=1;align=left;verticalAlign=top;strokeColor=default;" parent="edge43" vertex="1" connectable="0">
          <mxGeometry x="723" y="1783" as="geometry" />
        </mxCell>
        <mxCell id="label262" value="*" style="edgeLabel;resizable=0;html=1;align=left;verticalAlign=top;strokeColor=default;" parent="edge43" vertex="1" connectable="0">
          <mxGeometry x="294" y="689" as="geometry" />
        </mxCell>
        <mxCell id="label263" value="savedArticles" style="edgeLabel;resizable=0;html=1;align=left;verticalAlign=top;strokeColor=default;" parent="edge43" vertex="1" connectable="0">
          <mxGeometry x="303" y="689" as="geometry" />
        </mxCell>
        <mxCell id="edge13" value="" style="html=1;rounded=1;edgeStyle=orthogonalEdgeStyle;dashed=0;startArrow=diamondThinstartSize=12;endArrow=openThin;endSize=12;strokeColor=#595959;exitX=0.250;exitY=0.000;exitDx=0;exitDy=0;entryX=0.250;entryY=0.000;entryDx=0;entryDy=0;" parent="1" source="node2" target="node4" edge="1">
          <mxGeometry width="50" height="50" relative="1" as="geometry">
            <Array as="points">
              <mxPoint x="680" y="1863" />
              <mxPoint x="683" y="1863" />
              <mxPoint x="683" y="1803" />
              <mxPoint x="823" y="1803" />
              <mxPoint x="823" y="923" />
              <mxPoint x="904" y="923" />
            </Array>
          </mxGeometry>
        </mxCell>
        <mxCell id="label78" value="1" style="edgeLabel;resizable=0;html=1;align=left;verticalAlign=top;strokeColor=default;" parent="edge13" vertex="1" connectable="0">
          <mxGeometry x="812" y="1573" as="geometry" />
        </mxCell>
        <mxCell id="label82" value="*" style="edgeLabel;resizable=0;html=1;align=left;verticalAlign=top;strokeColor=default;" parent="edge13" vertex="1" connectable="0">
          <mxGeometry x="859" y="903" as="geometry" />
        </mxCell>
        <mxCell id="label83" value="roles" style="edgeLabel;resizable=0;html=1;align=left;verticalAlign=top;strokeColor=default;" parent="edge13" vertex="1" connectable="0">
          <mxGeometry x="847" y="923" as="geometry" />
        </mxCell>
        <mxCell id="edge3" value="" style="html=1;rounded=1;edgeStyle=orthogonalEdgeStyle;dashed=0;startArrow=none;endArrow=block;endSize=12;strokeColor=#000082;exitX=0.750;exitY=0.000;exitDx=0;exitDy=0;entryX=0.500;entryY=1.000;entryDx=0;entryDy=0;" parent="1" source="node4" target="node12" edge="1">
          <mxGeometry width="50" height="50" relative="1" as="geometry">
            <Array as="points">
              <mxPoint x="1023" y="923" />
              <mxPoint x="1063" y="923" />
              <mxPoint x="1063" y="203" />
              <mxPoint x="-17" y="203" />
            </Array>
          </mxGeometry>
        </mxCell>
        <mxCell id="edge34" value="" style="html=1;rounded=1;edgeStyle=orthogonalEdgeStyle;dashed=0;startArrow=diamondThinstartSize=12;endArrow=openThin;endSize=12;strokeColor=#595959;exitX=0.250;exitY=0.000;exitDx=0;exitDy=0;entryX=0.500;entryY=1.001;entryDx=0;entryDy=0;" parent="1" source="node4" target="node10" edge="1">
          <mxGeometry width="50" height="50" relative="1" as="geometry">
            <Array as="points">
              <mxPoint x="904" y="883" />
              <mxPoint x="943" y="883" />
            </Array>
          </mxGeometry>
        </mxCell>
        <mxCell id="label204" value="1" style="edgeLabel;resizable=0;html=1;align=left;verticalAlign=top;strokeColor=default;" parent="edge34" vertex="1" connectable="0">
          <mxGeometry x="918" y="863" as="geometry" />
        </mxCell>
        <mxCell id="label208" value="*" style="edgeLabel;resizable=0;html=1;align=left;verticalAlign=top;strokeColor=default;" parent="edge34" vertex="1" connectable="0">
          <mxGeometry x="934" y="534" as="geometry" />
        </mxCell>
        <mxCell id="label209" value="permissions" style="edgeLabel;resizable=0;html=1;align=left;verticalAlign=top;strokeColor=default;" parent="edge34" vertex="1" connectable="0">
          <mxGeometry x="943" y="512" as="geometry" />
        </mxCell>
      </root>
    </mxGraphModel>
  </diagram>
</mxfile>
